<svg width="146" height="24" viewBox="0 0 146 24" fill="none" xmlns="http://www.w3.org/2000/svg">
<path d="M115 15.4951V9.15381H118.959V10.0063H115.984V12.0103H118.709V12.8408H115.984V15.4951H115Z" fill="#14191E"/>
<path d="M120.238 15.4951V9.15381H121.223V14.6426H124.198V15.4951H120.238Z" fill="#14191E"/>
<path d="M127.916 15.6489C127.3 15.6489 126.771 15.5142 126.329 15.2446C125.887 14.9722 125.547 14.5869 125.31 14.0889C125.072 13.5908 124.954 13.0034 124.954 12.3267V12.3179C124.954 11.6353 125.074 11.0464 125.314 10.5513C125.554 10.0562 125.896 9.67383 126.338 9.4043C126.783 9.13477 127.309 9 127.916 9C128.525 9 129.051 9.13477 129.493 9.4043C129.936 9.67383 130.275 10.0576 130.513 10.5557C130.753 11.0508 130.873 11.6382 130.873 12.3179V12.3267C130.873 13.0034 130.754 13.5908 130.517 14.0889C130.28 14.584 129.938 14.9678 129.493 15.2402C129.051 15.5127 128.525 15.6489 127.916 15.6489ZM127.916 14.7744C128.314 14.7744 128.66 14.6733 128.953 14.4712C129.246 14.269 129.471 13.9849 129.629 13.6187C129.788 13.2495 129.867 12.8188 129.867 12.3267V12.3179C129.867 11.8198 129.788 11.3877 129.629 11.0215C129.471 10.6553 129.246 10.3726 128.953 10.1733C128.66 9.97412 128.314 9.87451 127.916 9.87451C127.517 9.87451 127.171 9.97412 126.878 10.1733C126.588 10.3726 126.363 10.6553 126.202 11.0215C126.041 11.3877 125.96 11.8198 125.96 12.3179V12.3267C125.96 12.8188 126.038 13.2495 126.193 13.6187C126.351 13.9849 126.575 14.269 126.865 14.4712C127.158 14.6733 127.508 14.7744 127.916 14.7744Z" fill="#14191E"/>
<path d="M133.268 15.4951L131.559 9.15381H132.587L133.751 14.0801H133.809L135.131 9.15381H136.05L137.381 14.0801H137.438L138.599 9.15381H139.623L137.913 15.4951H136.981L135.619 10.7578H135.562L134.2 15.4951H133.268Z" fill="#14191E"/>
<path d="M18.2172 4.49886C17.445 3.56922 16.3318 3.09162 15.2107 3.09162C14.0897 3.09162 13.0104 3.57175 12.2075 4.49886C12.1997 4.50772 3.86761 14.471 3.86761 14.471C2.49193 16.1268 2.71948 18.5844 4.37536 19.9598C5.10332 20.5644 5.98619 20.8593 6.864 20.8593C7.98302 20.8593 9.09369 20.3799 9.86468 19.452L15.212 13.0569L20.5603 19.452C21.3311 20.3799 22.442 20.8593 23.561 20.8593C24.4388 20.8593 25.3214 20.5644 26.0497 19.9598C27.7055 18.5842 27.9331 16.1268 26.5574 14.471L18.2172 4.49886ZM24.982 18.6748C24.577 19.0111 24.0857 19.1888 23.5608 19.1888C22.8951 19.1888 22.2699 18.8957 21.8451 18.3847L21.8434 18.3827L21.8416 18.3807L15.2115 10.4531L8.58265 18.3809L8.58088 18.3829L8.57911 18.385C8.15463 18.896 7.52918 19.1891 6.86349 19.1891C6.33878 19.1891 5.84723 19.0114 5.44225 18.675C4.49787 17.8907 4.36726 16.4844 5.15116 15.5396C5.33467 15.3202 13.1747 5.94558 13.4779 5.58314C13.9472 5.04581 14.5458 4.76209 15.2102 4.76209C15.8747 4.76209 16.5072 5.05518 16.9317 5.56619L16.9334 5.56821L16.9352 5.57024L25.2721 15.5386C26.0565 16.4834 25.9266 17.8902 24.982 18.6748ZM15.8552 6.48089C15.6972 6.29056 15.4631 6.17995 15.2158 6.17869H15.212C14.966 6.17869 14.7326 6.28702 14.5739 6.47507L6.32511 16.2447C6.02745 16.5973 6.072 17.1243 6.42459 17.4217C6.77718 17.7193 7.30416 17.6748 7.60158 17.3222L15.2064 8.31536L22.8181 17.4943C22.9834 17.6935 23.2216 17.7965 23.4615 17.7965C23.6494 17.7965 23.8384 17.7335 23.9944 17.6042C24.3495 17.3098 24.3986 16.7831 24.1042 16.428L15.8552 6.48089ZM28.762 12.3224L20.6712 2.56087C19.3641 0.995697 17.3982 0 15.1996 0C13.001 0 11.0386 0.993926 9.7318 2.55631L1.63817 12.3224C-0.873241 15.3559 -0.449779 19.8507 2.58381 22.3619C3.91419 23.4632 5.52502 24 7.12698 24C9.17798 24 11.2138 23.1195 12.6236 21.4163L15.2026 18.2944L17.7761 21.4163C19.1862 23.1197 21.2217 24 23.2727 24C24.8744 24 26.4858 23.4632 27.8159 22.3619C30.8495 19.8507 31.2734 15.3559 28.762 12.3224ZM28.7053 17.3814C28.5687 18.8335 27.7825 20.044 26.751 21.0752C25.6194 22.2068 23.8954 22.3295 23.273 22.3295C21.6396 22.3295 20.1062 21.6095 19.0652 20.3538L15.2039 15.6697L11.3365 20.3511C10.2957 21.6085 8.7611 22.3295 7.12648 22.3295C6.50407 22.3295 4.70112 22.1278 3.64867 21.0752C2.59621 20.0225 1.83105 18.8335 1.69436 17.3814C1.55768 15.9294 1.99456 14.5113 2.924 13.3885L11.0151 3.62566C12.0557 2.38319 13.5807 1.67046 15.1996 1.67046C16.8185 1.67046 18.3458 2.38421 19.3866 3.6287L27.4752 13.3875C28.4051 14.511 28.842 15.9294 28.7053 17.3814Z" fill="#0088FF"/>
<path fill-rule="evenodd" clip-rule="evenodd" d="M72.3457 0.000555285C72.5364 -0.00482349 72.7262 0.0289216 72.9034 0.0997101C73.0806 0.170499 73.2414 0.27683 73.3759 0.412148C73.5104 0.547467 73.6158 0.708905 73.6855 0.886508C73.7553 1.06411 73.7879 1.25412 73.7814 1.44481C73.7614 1.80922 73.6025 2.15212 73.3375 2.40302C73.0724 2.65392 72.7213 2.79374 72.3564 2.79374C71.9914 2.79374 71.6403 2.65392 71.3753 2.40302C71.1103 2.15212 70.9514 1.80922 70.9314 1.44481C70.9256 1.25611 70.958 1.06819 71.0267 0.89233C71.0953 0.716467 71.1988 0.556287 71.3309 0.421403C71.463 0.286519 71.6209 0.179712 71.7953 0.107393C71.9697 0.0350745 72.1569 -0.00126524 72.3457 0.000555285ZM71.5443 5.60614H73.1685C73.1835 5.60556 73.1984 5.60801 73.2125 5.61336C73.2265 5.6187 73.2393 5.62681 73.2501 5.63722C73.2609 5.64762 73.2695 5.6601 73.2754 5.67391C73.2812 5.68771 73.2842 5.70256 73.2842 5.71756V19.003C73.2842 19.018 73.2812 19.0328 73.2754 19.0466C73.2695 19.0604 73.2609 19.0729 73.2501 19.0833C73.2393 19.0937 73.2265 19.1018 73.2125 19.1072C73.1984 19.1125 73.1835 19.115 73.1685 19.1144H71.5443C71.5147 19.1144 71.4864 19.1026 71.4655 19.0818C71.4446 19.0609 71.4328 19.0325 71.4328 19.003V5.71756C71.4328 5.68801 71.4446 5.65967 71.4655 5.63877C71.4864 5.61788 71.5147 5.60614 71.5443 5.60614ZM50.9221 6.9389C49.9595 7.91519 49.4204 9.23151 49.4216 10.6026L49.4387 18.9938C49.4387 19.0088 49.4418 19.0237 49.4476 19.0375C49.4535 19.0513 49.4621 19.0637 49.4729 19.0742C49.4837 19.0846 49.4965 19.0927 49.5105 19.098C49.5245 19.1034 49.5395 19.1058 49.5545 19.1052H51.1787C51.1933 19.1052 51.2078 19.1023 51.2213 19.0967C51.2349 19.0911 51.2471 19.0829 51.2575 19.0726C51.2678 19.0622 51.276 19.05 51.2816 19.0364C51.2872 19.0229 51.2901 19.0084 51.2901 18.9938V10.4226C51.2901 8.48977 52.5244 7.04552 54.4486 7.04552C56.3729 7.04552 57.5128 8.34834 57.5128 10.204V18.9809C57.5128 19.0105 57.5246 19.0388 57.5455 19.0597C57.5664 19.0806 57.5947 19.0924 57.6243 19.0924H59.2657C59.2952 19.0924 59.3235 19.0806 59.3444 19.0597C59.3653 19.0388 59.3771 19.0105 59.3771 18.9809V10.4097C59.3771 8.50263 60.7228 7.04552 62.5827 7.04552C64.5327 7.04552 65.5826 8.2712 65.5826 10.114V18.9809C65.5826 19.0105 65.5944 19.0388 65.6153 19.0597C65.6362 19.0806 65.6645 19.0924 65.6941 19.0924H67.3183C67.3333 19.093 67.3483 19.0905 67.3623 19.0852C67.3763 19.0798 67.3891 19.0717 67.3999 19.0613C67.4107 19.0509 67.4193 19.0384 67.4252 19.0246C67.431 19.0108 67.434 18.9959 67.434 18.9809V9.6126C67.434 6.86552 65.7241 5.38699 63.0027 5.38699C62.2099 5.40514 61.4337 5.61789 60.7425 6.00649C60.0512 6.39509 59.4661 6.94763 59.0385 7.61551C59.0178 7.64623 58.9893 7.67081 58.9558 7.68665C58.9223 7.70249 58.8852 7.709 58.8483 7.70548C58.8115 7.70197 58.7762 7.68858 58.7463 7.6667C58.7164 7.64483 58.693 7.6153 58.6785 7.58122C58.1514 6.32982 56.9214 5.38699 55.0315 5.38699H54.5643C53.1934 5.40503 51.8848 5.96261 50.9221 6.9389ZM40.0885 11.2763C37.02 11.2763 35.4 12.8705 35.4 15.189C35.4 17.679 37.1871 19.3118 39.7928 19.3118C40.5078 19.2995 41.2122 19.1371 41.8604 18.8352C42.5086 18.5332 43.0861 18.0984 43.5555 17.559C43.5769 17.5343 43.6053 17.5167 43.637 17.5088C43.6687 17.5008 43.702 17.5029 43.7325 17.5146C43.763 17.5263 43.7891 17.5472 43.8073 17.5743C43.8255 17.6014 43.8348 17.6335 43.8341 17.6661V18.9818C43.8341 19.0114 43.8458 19.0397 43.8667 19.0606C43.8876 19.0815 43.916 19.0932 43.9455 19.0932H45.5184C45.5331 19.0938 45.5479 19.0914 45.5617 19.086C45.5755 19.0806 45.588 19.0724 45.5985 19.0619C45.609 19.0515 45.6171 19.0389 45.6225 19.0252C45.6279 19.0114 45.6304 18.9966 45.6298 18.9818V9.78489C45.6298 6.60068 43.4484 5.39213 40.7656 5.39213C37.9971 5.39213 36.2057 6.54068 35.94 8.65349C35.9388 8.66903 35.9408 8.68465 35.9459 8.69941C35.9509 8.71417 35.9588 8.72776 35.9692 8.73937C35.9796 8.75097 35.9923 8.76036 36.0064 8.76696C36.0205 8.77356 36.0359 8.77723 36.0514 8.77777H37.6585C37.6825 8.77646 37.7055 8.768 37.7246 8.75349C37.7437 8.73897 37.758 8.71907 37.7657 8.69634C38.0657 7.77922 38.7985 7.04638 40.6756 7.04638C42.5527 7.04638 43.757 7.91207 43.757 9.81917V10.372C43.757 10.6111 43.6623 10.8405 43.4936 11.0099C43.325 11.1794 43.0961 11.2751 42.857 11.2763H40.0885ZM43.757 13.3591V14.4691C43.757 16.299 42.2313 17.6661 40.2428 17.6661C38.6871 17.6661 37.3285 16.8647 37.3285 15.1505C37.3285 13.8391 38.1342 12.832 40.1271 12.832H43.2341C43.3732 12.8331 43.5062 12.8891 43.6041 12.9879C43.702 13.0866 43.757 13.22 43.757 13.3591ZM86.4538 17.0445V18.7587L86.458 18.7673C86.458 20.9958 85.1852 22.35 82.6696 22.35C80.7625 22.35 79.6311 21.4501 79.4125 20.4815C79.4076 20.4565 79.3943 20.434 79.3748 20.4176C79.3553 20.4012 79.3308 20.392 79.3054 20.3915H77.5911C77.5749 20.3913 77.5589 20.3947 77.5441 20.4013C77.5293 20.4079 77.5162 20.4177 77.5056 20.43C77.495 20.4422 77.4872 20.4566 77.4827 20.4722C77.4782 20.4877 77.4772 20.5041 77.4797 20.5201C77.7325 22.35 79.3739 24 82.5967 24C86.0509 24 88.3223 22.2858 88.318 18.6944V11.2246C88.3277 10.3398 88.1444 9.46361 87.781 8.65688C87.4176 7.85015 86.8828 7.13229 86.2138 6.55327C85.2153 5.78008 83.9837 5.36906 82.721 5.38759H82.4724C79.5325 5.38759 77.1454 7.48754 77.1454 11.0017V13.2303C77.1454 16.6887 79.5068 18.8016 82.4853 18.8016C84.3238 18.8016 85.6223 17.5673 86.1666 16.9373C86.1883 16.9117 86.2173 16.8934 86.2497 16.885C86.2822 16.8765 86.3164 16.8782 86.3478 16.89C86.3792 16.9017 86.4063 16.9228 86.4252 16.9505C86.4442 16.9781 86.4541 17.0109 86.4538 17.0445ZM79.0139 12.7931V11.4432H79.0311C79.0311 8.76036 80.561 7.04612 82.8453 7.04612C85.1295 7.04612 86.4795 8.97893 86.4795 11.0789V13.1917C86.4795 15.2145 85.2195 17.1602 82.871 17.1602C80.621 17.1602 79.0139 15.4245 79.0139 12.7931ZM103.194 11.2883V13.4311C103.194 17.2024 100.742 19.3281 97.5325 19.3281C94.3226 19.3281 91.8584 17.241 91.8584 13.4311V11.2883C91.8584 7.62836 94.2969 5.38699 97.5325 5.38699C100.768 5.38699 103.194 7.52979 103.194 11.2883ZM93.7098 11.5068V13.2211C93.7098 15.981 95.1712 17.6695 97.5454 17.6695C99.9196 17.6695 101.334 15.9939 101.334 13.2211V11.5068C101.334 8.79833 99.8296 7.04552 97.5454 7.04552C95.2612 7.04552 93.7098 8.79833 93.7098 11.5068Z" fill="#26282A"/>
<path fill-rule="evenodd" clip-rule="evenodd" d="M116.086 6.25748C112.784 6.25748 110.106 8.9347 110.106 12.2372C110.106 15.5397 112.784 18.2169 116.086 18.2169H139.02C142.323 18.2169 145 15.5397 145 12.2372C145 8.9347 142.323 6.25748 139.02 6.25748H116.086ZM109.249 12.2372C109.249 8.46122 112.31 5.40018 116.086 5.40018H139.02C142.796 5.40018 145.857 8.46122 145.857 12.2372C145.857 16.0132 142.796 19.0742 139.02 19.0742H116.086C112.31 19.0742 109.249 16.0132 109.249 12.2372Z" fill="#26282A"/>
</svg>
